<svg xmlns="http://www.w3.org/2000/svg" version="1.1" xmlns:xlink="http://www.w3.org/1999/xlink" width="1000" height="1000"><style>
    #light-icon {
      display: inline;
    }
    #dark-icon {
      display: none;
    }

    @media (prefers-color-scheme: dark) {
      #light-icon {
        display: none;
      }
      #dark-icon {
        display: inline;
      }
    }
  </style><g id="light-icon"><svg xmlns="http://www.w3.org/2000/svg" version="1.1" xmlns:xlink="http://www.w3.org/1999/xlink" width="1000" height="1000"><g><g transform="matrix(3.90625,0,0,3.90625,0,0)"><svg xmlns="http://www.w3.org/2000/svg" width="256" height="256" viewBox="0 0 256 256" fill="none"><path d="M256 128C256 198.692 198.692 256 128 256C57.3075 256 0 198.692 0 128C0 57.3075 57.3075 0 128 0C198.692 0 256 57.3075 256 128Z" fill="url(#paint0_linear_176_14)"></path><path d="M256 128C256 198.692 198.692 256 128 256C57.3075 256 0 198.692 0 128C0 57.3075 57.3075 0 128 0C198.692 0 256 57.3075 256 128Z" fill="white" fill-opacity="0.47"></path><path d="M84.582 83.288C84.582 79.328 84.186 76.424 83.394 74.576C82.734 72.728 81.348 71.474 79.236 70.814C77.124 70.022 73.89 69.626 69.534 69.626C69.27 69.626 69.138 69.23 69.138 68.438C69.138 67.646 69.27 67.25 69.534 67.25L80.028 67.448C85.836 67.712 90.456 67.844 93.888 67.844C97.848 67.844 102.732 67.712 108.54 67.448L118.44 67.25C118.836 67.25 119.034 67.646 119.034 68.438C119.034 69.23 118.836 69.626 118.44 69.626C114.084 69.626 110.85 70.022 108.738 70.814C106.758 71.606 105.372 72.992 104.58 74.972C103.788 76.82 103.392 79.724 103.392 83.684V174.962C103.392 179.054 103.722 182.024 104.382 183.872C105.174 185.72 106.56 186.974 108.54 187.634C110.652 188.294 113.952 188.624 118.44 188.624C118.968 188.624 119.232 189.02 119.232 189.812C119.232 190.604 118.968 191 118.44 191C114.216 191 110.85 190.934 108.342 190.802L93.888 190.604L79.83 190.802C77.322 190.934 73.824 191 69.336 191C69.072 191 68.94 190.604 68.94 189.812C68.94 189.02 69.072 188.624 69.336 188.624C73.824 188.624 77.058 188.294 79.038 187.634C81.15 186.974 82.602 185.72 83.394 183.872C84.186 181.892 84.582 178.922 84.582 174.962V83.288ZM107.352 124.67L121.212 111.998L150.912 151.4C159.888 163.676 166.686 172.388 171.306 177.536C175.926 182.552 179.556 185.654 182.196 186.842C184.836 188.03 188.4 188.624 192.888 188.624C193.284 188.624 193.482 189.02 193.482 189.812C193.482 190.604 193.284 191 192.888 191H170.712L162.99 191.198C161.142 191.198 159.558 190.802 158.238 190.01C156.918 189.218 155.4 187.766 153.684 185.654C151.968 183.542 148.8 179.384 144.18 173.18L136.062 162.29L107.352 124.67ZM142.398 86.06C146.49 82.1 148.536 78.668 148.536 75.764C148.536 73.916 147.48 72.464 145.368 71.408C143.388 70.22 140.418 69.626 136.458 69.626C136.194 69.626 136.062 69.23 136.062 68.438C136.062 67.646 136.194 67.25 136.458 67.25L145.368 67.448C151.176 67.712 156.456 67.844 161.208 67.844C166.356 67.844 171.57 67.712 176.85 67.448L185.364 67.25C185.76 67.25 185.958 67.646 185.958 68.438C185.958 69.23 185.76 69.626 185.364 69.626C179.556 69.626 173.154 71.21 166.158 74.378C159.294 77.414 153.024 81.704 147.348 87.248L96.66 138.332L91.314 137.936L142.398 86.06Z" fill="black"></path><defs>
<linearGradient id="paint0_linear_176_14" x1="128" y1="0" x2="128" y2="256" gradientUnits="userSpaceOnUse">
<stop stop-color="#D37EE9"></stop>
<stop offset="0.563556" stop-color="#7573F0"></stop>
<stop offset="1" stop-color="#D9D9D9"></stop>
</linearGradient>
</defs></svg></g></g></svg></g><g id="dark-icon"><svg xmlns="http://www.w3.org/2000/svg" version="1.1" xmlns:xlink="http://www.w3.org/1999/xlink" width="1000" height="1000"><g clip-path="url(#SvgjsClipPath1135)"><rect width="1000" height="1000" fill="#cdb7f5"></rect><g transform="matrix(3.90625,0,0,3.90625,0,0)"><svg xmlns="http://www.w3.org/2000/svg" width="256" height="256" viewBox="0 0 256 256" fill="none"><path d="M256 128C256 198.692 198.692 256 128 256C57.3075 256 0 198.692 0 128C0 57.3075 57.3075 0 128 0C198.692 0 256 57.3075 256 128Z" fill="url(#paint0_linear_176_14)"></path><path d="M256 128C256 198.692 198.692 256 128 256C57.3075 256 0 198.692 0 128C0 57.3075 57.3075 0 128 0C198.692 0 256 57.3075 256 128Z" fill="white" fill-opacity="0.47"></path><path d="M84.582 83.288C84.582 79.328 84.186 76.424 83.394 74.576C82.734 72.728 81.348 71.474 79.236 70.814C77.124 70.022 73.89 69.626 69.534 69.626C69.27 69.626 69.138 69.23 69.138 68.438C69.138 67.646 69.27 67.25 69.534 67.25L80.028 67.448C85.836 67.712 90.456 67.844 93.888 67.844C97.848 67.844 102.732 67.712 108.54 67.448L118.44 67.25C118.836 67.25 119.034 67.646 119.034 68.438C119.034 69.23 118.836 69.626 118.44 69.626C114.084 69.626 110.85 70.022 108.738 70.814C106.758 71.606 105.372 72.992 104.58 74.972C103.788 76.82 103.392 79.724 103.392 83.684V174.962C103.392 179.054 103.722 182.024 104.382 183.872C105.174 185.72 106.56 186.974 108.54 187.634C110.652 188.294 113.952 188.624 118.44 188.624C118.968 188.624 119.232 189.02 119.232 189.812C119.232 190.604 118.968 191 118.44 191C114.216 191 110.85 190.934 108.342 190.802L93.888 190.604L79.83 190.802C77.322 190.934 73.824 191 69.336 191C69.072 191 68.94 190.604 68.94 189.812C68.94 189.02 69.072 188.624 69.336 188.624C73.824 188.624 77.058 188.294 79.038 187.634C81.15 186.974 82.602 185.72 83.394 183.872C84.186 181.892 84.582 178.922 84.582 174.962V83.288ZM107.352 124.67L121.212 111.998L150.912 151.4C159.888 163.676 166.686 172.388 171.306 177.536C175.926 182.552 179.556 185.654 182.196 186.842C184.836 188.03 188.4 188.624 192.888 188.624C193.284 188.624 193.482 189.02 193.482 189.812C193.482 190.604 193.284 191 192.888 191H170.712L162.99 191.198C161.142 191.198 159.558 190.802 158.238 190.01C156.918 189.218 155.4 187.766 153.684 185.654C151.968 183.542 148.8 179.384 144.18 173.18L136.062 162.29L107.352 124.67ZM142.398 86.06C146.49 82.1 148.536 78.668 148.536 75.764C148.536 73.916 147.48 72.464 145.368 71.408C143.388 70.22 140.418 69.626 136.458 69.626C136.194 69.626 136.062 69.23 136.062 68.438C136.062 67.646 136.194 67.25 136.458 67.25L145.368 67.448C151.176 67.712 156.456 67.844 161.208 67.844C166.356 67.844 171.57 67.712 176.85 67.448L185.364 67.25C185.76 67.25 185.958 67.646 185.958 68.438C185.958 69.23 185.76 69.626 185.364 69.626C179.556 69.626 173.154 71.21 166.158 74.378C159.294 77.414 153.024 81.704 147.348 87.248L96.66 138.332L91.314 137.936L142.398 86.06Z" fill="black"></path><defs>
<linearGradient id="paint0_linear_176_14" x1="128" y1="0" x2="128" y2="256" gradientUnits="userSpaceOnUse">
<stop stop-color="#D37EE9"></stop>
<stop offset="0.563556" stop-color="#7573F0"></stop>
<stop offset="1" stop-color="#D9D9D9"></stop>
</linearGradient>
<clipPath id="SvgjsClipPath1135"><rect width="1000" height="1000" x="0" y="0" rx="450" ry="450"></rect></clipPath></defs></svg></g></g></svg></g></svg>